<svg xmlns="http://www.w3.org/2000/svg" viewBox="0 0 100 100"><path fill="#c8ede6" d="M87.234,55.551c0.3-0.616,0.566-1.264,0.796-1.943c2.633-7.77-1.349-17.078-9.733-19.325 C77.391,22.9,69.391,15.09,60.356,13.758c-10.341-1.525-19.814,5.044-22.966,15.485c-3.799-1.346-7.501-1.182-10.99,0.857 c-1.583,0.732-3.031,1.812-4.33,3.233c-1.907,2.086-3.147,4.719-3.652,7.495c-0.748,0.118-1.483,0.236-2.176,0.484 c-4.04,1.449-6.589,4.431-7.288,8.923c-0.435,2.797,0.443,5.587,0.933,6.714c1.935,4.455,6.422,6.98,10.981,6.312 c0.227-0.033,0.557,0.069,0.752,0.233c0.241,7.12,3.698,13.417,8.884,17.014c8.321,5.772,19.027,3.994,25.781-3.921 c2.894,2.96,6.338,4.398,10.384,3.876c4.023-0.519,7.147-2.739,9.426-6.349c1.053,0.283,2.051,0.691,3.083,0.804 c4.042,0.442,7.297-1.184,9.732-4.8c0.083-0.124,0.203-0.219,0.306-0.328c0.348-0.798,0.696-1.596,1.044-2.394 c0.155-1.211,0.429-2.423,0.443-3.632C90.742,60.508,89.411,57.54,87.234,55.551z"></path><path fill="#fdfcef" d="M72.674,42.423c0,0-11.691,0-11.762,0c-2.7,0-4.888-2.189-4.888-4.889 c0-2.355,1.666-4.321,3.884-4.784c-0.026-0.206-0.043-0.415-0.043-0.628c0-2.796,2.267-5.063,5.063-5.063 c1.651,0,3.113,0.794,4.037,2.017c0.236-3.113,3.017-5.514,6.27-5.116c2.379,0.291,4.346,2.13,4.784,4.486 c0.14,0.756,0.126,1.489-0.014,2.177c0.638-0.687,1.546-1.119,2.557-1.119c1.85,0,3.361,1.441,3.48,3.261 c0.84-0.186,1.754-0.174,2.717,0.188c1.84,0.691,3.15,2.423,3.227,4.387c0.109,2.789-2.12,5.085-4.885,5.085 c-0.21,0-0.948,0-1.118,0H75.832"></path><path fill="#472b29" d="M60.912,42.923h11.762c0.276,0,0.5-0.224,0.5-0.5s-0.224-0.5-0.5-0.5H60.912 c-2.42,0-4.389-1.969-4.389-4.389c0-2.066,1.466-3.873,3.486-4.295c0.255-0.053,0.426-0.293,0.394-0.552 c-0.023-0.186-0.039-0.374-0.039-0.565c0-2.517,2.047-4.563,4.562-4.563c1.438,0,2.765,0.663,3.638,1.818 c0.125,0.166,0.338,0.237,0.54,0.178c0.199-0.059,0.342-0.234,0.357-0.441c0.104-1.377,0.779-2.671,1.85-3.549 c1.083-0.888,2.456-1.282,3.86-1.109c2.166,0.266,3.956,1.943,4.353,4.081c0.124,0.667,0.12,1.335-0.013,1.986 c-0.044,0.22,0.062,0.442,0.262,0.544c0.2,0.104,0.443,0.06,0.595-0.104c0.575-0.618,1.353-0.959,2.19-0.959 c1.569,0,2.878,1.228,2.981,2.794c0.01,0.146,0.082,0.279,0.199,0.366c0.117,0.089,0.268,0.12,0.408,0.089 c0.841-0.185,1.637-0.132,2.433,0.167c1.669,0.627,2.835,2.209,2.903,3.938c0.047,1.207-0.387,2.35-1.221,3.218 c-0.835,0.869-1.959,1.348-3.164,1.348H75.828c-0.276,0-0.5,0.224-0.5,0.5s0.224,0.5,0.5,0.5h11.271 c1.479,0,2.858-0.588,3.884-1.654c1.025-1.066,1.558-2.469,1.5-3.95c-0.083-2.126-1.51-4.069-3.55-4.835 c-0.8-0.301-1.626-0.398-2.468-0.299c-0.377-1.822-1.998-3.182-3.905-3.182c-0.684,0-1.354,0.18-1.944,0.51 c0-0.386-0.035-0.772-0.106-1.159c-0.477-2.562-2.621-4.573-5.215-4.891c-1.679-0.205-3.32,0.266-4.616,1.328 c-1.003,0.823-1.716,1.951-2.038,3.193c-1.012-0.916-2.319-1.426-3.714-1.426c-3.067,0-5.562,2.496-5.562,5.563 c0,0.083,0.002,0.166,0.007,0.248c-2.254,0.673-3.848,2.776-3.848,5.164C55.523,40.507,57.94,42.923,60.912,42.923z"></path><path fill="#fdfcef" d="M75.507,31.655c1.808-0.119,3.365,1.13,3.476,2.789c0.014,0.206,0.005,0.409-0.025,0.606 c0.349-0.394,0.865-0.661,1.458-0.7c1.085-0.071,2.022,0.645,2.158,1.62c0.197-0.054,0.403-0.09,0.616-0.104 c1.582-0.104,2.944,0.989,3.042,2.441"></path><path fill="#472b29" d="M86.231,38.556c0.006,0,0.012,0,0.017-0.001c0.138-0.009,0.242-0.128,0.233-0.266 c-0.107-1.587-1.588-2.789-3.308-2.674c-0.137,0.009-0.273,0.026-0.409,0.053c-0.274-0.968-1.256-1.645-2.366-1.567 c-0.425,0.027-0.823,0.159-1.164,0.382c0-0.019-0.002-0.037-0.003-0.056c-0.12-1.795-1.787-3.16-3.742-3.021 c-0.138,0.009-0.242,0.128-0.233,0.266c0.009,0.138,0.124,0.255,0.266,0.232c1.651-0.105,3.108,1.037,3.21,2.557 c0.012,0.184,0.004,0.37-0.023,0.553c-0.017,0.109,0.041,0.217,0.141,0.264s0.219,0.022,0.293-0.061 c0.323-0.365,0.78-0.584,1.287-0.617c0.951-0.034,1.775,0.556,1.894,1.404c0.01,0.071,0.05,0.135,0.11,0.175 c0.06,0.039,0.133,0.051,0.204,0.032c0.187-0.051,0.377-0.083,0.567-0.097c1.44-0.092,2.687,0.896,2.775,2.209 C85.991,38.455,86.101,38.556,86.231,38.556z"></path><path fill="#fdfcef" d="M58.932,33.323c1.699-0.801,3.664-0.234,4.389,1.267c0.09,0.186,0.157,0.379,0.201,0.574"></path><path fill="#472b29" d="M63.522,35.414c0.018,0,0.037-0.002,0.056-0.006c0.134-0.031,0.219-0.165,0.188-0.3 c-0.049-0.217-0.123-0.428-0.219-0.627c-0.783-1.621-2.902-2.239-4.721-1.385c-0.125,0.06-0.179,0.208-0.12,0.333 c0.059,0.126,0.209,0.176,0.333,0.12c1.574-0.744,3.394-0.227,4.058,1.149c0.08,0.165,0.141,0.34,0.182,0.521 C63.305,35.336,63.408,35.414,63.522,35.414z"></path><path fill="#fff" d="M33.899,79h-10.03c-0.276,0-0.5-0.224-0.5-0.5s0.224-0.5,0.5-0.5h10.03c0.276,0,0.5,0.224,0.5,0.5 S34.176,79,33.899,79z M37.28,78.5c0-0.276-0.224-0.5-0.5-0.5h-1.446c-0.276,0-0.5,0.224-0.5,0.5s0.224,0.5,0.5,0.5h1.446 C37.057,79,37.28,78.776,37.28,78.5z M41.335,78.5c0-0.276-0.224-0.5-0.5-0.5h-2.546c-0.276,0-0.5,0.224-0.5,0.5s0.224,0.5,0.5,0.5 h2.546C41.112,79,41.335,78.776,41.335,78.5z M41.335,80.5c0-0.276-0.224-0.5-0.5-0.5h-9.616c-0.276,0-0.5,0.224-0.5,0.5 s0.224,0.5,0.5,0.5h9.616C41.112,81,41.335,80.776,41.335,80.5z M29.987,80.5c0-0.276-0.224-0.5-0.5-0.5h-0.58 c-0.276,0-0.5,0.224-0.5,0.5s0.224,0.5,0.5,0.5h0.58C29.763,81,29.987,80.776,29.987,80.5z M27.611,80.5c0-0.276-0.224-0.5-0.5-0.5 h-1.457c-0.276,0-0.5,0.224-0.5,0.5s0.224,0.5,0.5,0.5h1.457C27.387,81,27.611,80.776,27.611,80.5z M36.746,76.5 c0-0.276-0.224-0.5-0.5-0.5h-5.027c-0.276,0-0.5,0.224-0.5,0.5s0.224,0.5,0.5,0.5h5.027C36.523,77,36.746,76.776,36.746,76.5z M36.746,74.5c0-0.276-0.224-0.5-0.5-0.5h-1.257c-0.276,0-0.5,0.224-0.5,0.5s0.224,0.5,0.5,0.5h1.257 C36.523,75,36.746,74.776,36.746,74.5z M33.477,82.5c0-0.276-0.224-0.5-0.5-0.5h-1.758c-0.276,0-0.5,0.224-0.5,0.5 s0.224,0.5,0.5,0.5h1.758C33.254,83,33.477,82.776,33.477,82.5z"></path><path fill="#fff" d="M48.744,23h-10.03c-0.276,0-0.5-0.224-0.5-0.5s0.224-0.5,0.5-0.5h10.031c0.276,0,0.5,0.224,0.5,0.5 S49.021,23,48.744,23z M52.125,22.5c0-0.276-0.224-0.5-0.5-0.5h-1.446c-0.276,0-0.5,0.224-0.5,0.5s0.224,0.5,0.5,0.5h1.446 C51.902,23,52.125,22.776,52.125,22.5z M56.18,22.5c0-0.276-0.224-0.5-0.5-0.5h-2.546c-0.276,0-0.5,0.224-0.5,0.5 s0.224,0.5,0.5,0.5h2.546C55.956,23,56.18,22.776,56.18,22.5z M54.154,18.5c0-0.276-0.224-0.5-0.5-0.5h-9.616 c-0.276,0-0.5,0.224-0.5,0.5s0.224,0.5,0.5,0.5h9.616C53.93,19,54.154,18.776,54.154,18.5z M42.806,18.5c0-0.276-0.224-0.5-0.5-0.5 h-0.58c-0.276,0-0.5,0.224-0.5,0.5s0.224,0.5,0.5,0.5h0.58C42.583,19,42.806,18.776,42.806,18.5z M40.429,18.5 c0-0.276-0.224-0.5-0.5-0.5h-1.456c-0.276,0-0.5,0.224-0.5,0.5s0.224,0.5,0.5,0.5h1.456C40.206,19,40.429,18.776,40.429,18.5z M51.591,20.5c0-0.276-0.224-0.5-0.5-0.5h-5.027c-0.276,0-0.5,0.224-0.5,0.5s0.224,0.5,0.5,0.5h5.027 C51.367,21,51.591,20.776,51.591,20.5z M51.591,18.5c0-0.276-0.224-0.5-0.5-0.5h-1.257c-0.276,0-0.5,0.224-0.5,0.5 s0.224,0.5,0.5,0.5h1.257C51.367,19,51.591,18.776,51.591,18.5z M45.108,20.5c0-0.276-0.224-0.5-0.5-0.5H42.85 c-0.276,0-0.5,0.224-0.5,0.5s0.224,0.5,0.5,0.5h1.758C44.885,21,45.108,20.776,45.108,20.5z"></path><path fill="#fbcd59" d="M31.171,68.3c-0.26,0-0.471-0.222-0.471-0.495V34.195c0-0.273,0.211-0.495,0.471-0.495h41.657 c0.26,0,0.472,0.222,0.472,0.495v33.609c0,0.273-0.212,0.495-0.472,0.495H31.171z"></path><path fill="#472b29" d="M72.6,34.4v33.2H31.4V34.4H72.6 M72.829,33H31.171C30.524,33,30,33.538,30,34.195v33.61 C30,68.462,30.524,69,31.171,69h41.657C73.476,69,74,68.462,74,67.805v-33.61C74,33.538,73.476,33,72.829,33L72.829,33z"></path><path fill="#c7dff1" d="M35,38h34v26H35V38z"></path><path fill="#00a7a7" d="M40.009,64v-1.128l13.048-18.583c0.272-0.391,0.864-0.383,1.129,0.011L67.463,64H40.009z"></path><path fill="#472b29" d="M68.402,64.5H39.509v-1.786l13.139-18.712c0.219-0.314,0.581-0.502,0.97-0.502 c0.003,0,0.007,0,0.011,0c0.393,0.004,0.756,0.198,0.973,0.521L68.402,64.5z M40.509,63.5h26.014L53.771,44.579 c-0.049-0.073-0.146-0.078-0.153-0.079c-0.038,0-0.105,0.01-0.15,0.075L40.509,63.03V63.5z"></path><path fill="#00a7a7" d="M68.823,64h-6.51l-10.147-0.156l9.858-13.649c0.313-0.441,0.944-0.469,1.297-0.064l5.438,6.29 L68.823,64z"></path><path fill="#472b29" d="M69.327,64.5h-7.014L51.2,64.33l10.419-14.428c0.235-0.332,0.605-0.536,1.013-0.556 c0.401-0.028,0.797,0.146,1.067,0.457l5.559,6.431L69.327,64.5z M53.134,63.359l9.188,0.141h5.998l-0.058-6.89l-5.318-6.151 c-0.091-0.104-0.193-0.108-0.263-0.114c-0.058,0.003-0.167,0.025-0.248,0.14L53.134,63.359z"></path><g><circle cx="61" cy="43" r="3" fill="#f9e65c"></circle><path fill="#472b29" d="M61,46.25c-1.792,0-3.25-1.458-3.25-3.25s1.458-3.25,3.25-3.25s3.25,1.458,3.25,3.25 S62.792,46.25,61,46.25z M61,40.25c-1.517,0-2.75,1.233-2.75,2.75s1.233,2.75,2.75,2.75s2.75-1.233,2.75-2.75 S62.517,40.25,61,40.25z"></path></g><g><path fill="#00a5a5" d="M35,64.01h15.16l-9.363-14.785c-0.187-0.296-0.604-0.302-0.796-0.008L35,56.795V64.01z"></path></g><g><path fill="#472b29" d="M50.16,64.51H35c-0.276,0-0.5-0.224-0.5-0.5v-7.215c0-0.098,0.029-0.193,0.083-0.275l5-7.578 c0.181-0.276,0.484-0.441,0.813-0.441c0.003,0,0.006,0,0.009,0c0.332,0.003,0.637,0.175,0.815,0.46l5.999,9.472 c0.148,0.233,0.079,0.542-0.155,0.69c-0.232,0.147-0.542,0.078-0.69-0.155l-6-9.474L35.5,56.944v6.565h13.751l-1.578-2.492 c-0.148-0.233-0.079-0.542,0.155-0.69c0.235-0.145,0.543-0.077,0.69,0.155l2.064,3.26c0.098,0.154,0.104,0.349,0.016,0.509 C50.51,64.41,50.342,64.51,50.16,64.51z"></path></g><g><path fill="#472b29" d="M69,64.5H35c-0.276,0-0.5-0.224-0.5-0.5V38c0-0.276,0.224-0.5,0.5-0.5h19.42 c0.276,0,0.5,0.224,0.5,0.5s-0.224,0.5-0.5,0.5H35.5v25h33v-25h-3.219c-0.276,0-0.5-0.224-0.5-0.5s0.224-0.5,0.5-0.5H69 c0.276,0,0.5,0.224,0.5,0.5v26C69.5,64.276,69.276,64.5,69,64.5z"></path></g><g><path fill="#472b29" d="M63.5,38.5h-5.938c-0.276,0-0.5-0.224-0.5-0.5s0.224-0.5,0.5-0.5H63.5c0.276,0,0.5,0.224,0.5,0.5 S63.776,38.5,63.5,38.5z"></path></g><g><rect width="3" height="65" x="50.5" y="18.5" fill="#9f8066" transform="rotate(-45.001 52 51)"></rect><path fill="#472b29" d="M73.92,75.542c-0.133,0-0.26-0.053-0.354-0.146L27.605,29.434c-0.195-0.195-0.195-0.512,0-0.707 l2.121-2.122c0.188-0.188,0.52-0.188,0.707,0l45.962,45.962c0.094,0.094,0.146,0.221,0.146,0.354s-0.053,0.26-0.146,0.354 l-2.122,2.122C74.18,75.489,74.053,75.542,73.92,75.542z M28.666,29.08L73.92,74.335l1.415-1.415L30.08,27.665L28.666,29.08z"></path></g><g><path fill="#fdfcef" d="M28.908,60.287h7.934c0.133,0,0.71,0,0.874,0c2.161,0,3.903-1.756,3.818-3.889 c-0.06-1.503-1.084-2.828-2.522-3.356c-0.752-0.276-1.466-0.285-2.123-0.143c-0.093-1.392-1.274-2.494-2.72-2.494 c-0.79,0-1.5,0.331-1.998,0.856c0.109-0.526,0.121-1.087,0.011-1.665c-0.342-1.802-1.88-3.208-3.739-3.431 c-2.542-0.305-4.715,1.532-4.9,3.913c-0.722-0.936-1.865-1.543-3.155-1.543c-2.185,0-3.957,1.734-3.957,3.873 c0,0.163,0.014,0.322,0.034,0.48c-1.733,0.355-3.035,1.858-3.035,3.66c0,2.065,1.711,3.739,3.821,3.739c0.023,0,1.657,0,3.54,0 M26.908,60.287h0.36"></path><path fill="#472b29" d="M12.931,56.547c0-1.85,1.239-3.483,3.003-4.038c-0.001-0.035-0.001-0.069-0.001-0.103 c0-2.411,1.999-4.373,4.457-4.373c1.056,0,2.051,0.359,2.842,1.007c0.268-0.893,0.798-1.689,1.546-2.302 c1.041-0.853,2.361-1.238,3.726-1.071c2.074,0.248,3.789,1.824,4.17,3.833c0.046,0.243,0.074,0.485,0.083,0.727 c0.437-0.21,0.921-0.323,1.414-0.323c1.506,0,2.791,1.028,3.135,2.424c0.64-0.06,1.27,0.019,1.88,0.244 c1.637,0.602,2.782,2.131,2.849,3.806c0.046,1.149-0.37,2.242-1.173,3.078c-0.813,0.846-1.959,1.331-3.144,1.331h-8.807 c-0.276,0-0.5-0.224-0.5-0.5s0.224-0.5,0.5-0.5h8.807c0.927,0,1.788-0.364,2.423-1.024c0.612-0.637,0.93-1.47,0.895-2.346 c-0.051-1.274-0.933-2.442-2.195-2.905c-0.603-0.223-1.207-0.263-1.846-0.125c-0.142,0.031-0.29-0.002-0.406-0.089 c-0.116-0.088-0.188-0.22-0.198-0.366c-0.076-1.136-1.052-2.027-2.221-2.027c-0.626,0-1.207,0.249-1.635,0.7 c-0.154,0.163-0.397,0.202-0.594,0.1c-0.198-0.104-0.303-0.326-0.258-0.545c0.1-0.482,0.103-0.977,0.009-1.472 c-0.301-1.585-1.661-2.83-3.307-3.027c-1.088-0.126-2.144,0.173-2.973,0.853c-0.804,0.66-1.29,1.584-1.369,2.604 c-0.016,0.206-0.157,0.38-0.355,0.44c-0.198,0.057-0.413-0.01-0.539-0.174c-0.662-0.858-1.668-1.349-2.76-1.349 c-1.906,0-3.457,1.513-3.457,3.373c0,0.142,0.012,0.28,0.03,0.417c0.033,0.26-0.14,0.501-0.396,0.554 c-1.528,0.312-2.636,1.646-2.636,3.17c0,1.786,1.49,3.239,3.321,3.239h3.54c0.276,0,0.5,0.224,0.5,0.5s-0.224,0.5-0.5,0.5h-3.54 C14.868,60.788,12.93,58.886,12.931,56.547z M26.408,60.288c0-0.276,0.224-0.5,0.5-0.5h0.36c0.276,0,0.5,0.224,0.5,0.5 s-0.224,0.5-0.5,0.5h-0.36C26.632,60.788,26.408,60.564,26.408,60.288z"></path><g><path fill="#472b29" d="M18.958,54.984c0.018,0,0.036-0.002,0.055-0.006c0.135-0.03,0.22-0.164,0.189-0.299 c-0.037-0.164-0.094-0.325-0.17-0.479c-0.604-1.224-2.272-1.677-3.722-1.007c-0.125,0.058-0.18,0.206-0.122,0.331 c0.058,0.126,0.207,0.179,0.332,0.122c1.201-0.556,2.577-0.208,3.063,0.774c0.058,0.118,0.102,0.242,0.13,0.367 C18.74,54.905,18.843,54.984,18.958,54.984z"></path></g><g><path fill="#472b29" d="M24.117,60.788h1.107c0.276,0,0.5-0.224,0.5-0.5s-0.224-0.5-0.5-0.5h-1.107 c-0.276,0-0.5,0.224-0.5,0.5S23.84,60.788,24.117,60.788z"></path></g></g></svg>
